<svg width="100" height="100" viewBox="0 0 100 100" fill="none" xmlns="http://www.w3.org/2000/svg">
<g clip-path="url(#clip0_52_1730)">
<path d="M30.576 83.864C23.792 83.864 18.864 81.72 15.792 77.432C12.784 73.144 11.28 66.936 11.28 58.808C11.28 54.904 11.76 50.84 12.72 46.616C13.68 42.392 15.056 38.296 16.848 34.328C18.704 30.296 20.912 26.68 23.472 23.48C26.032 20.28 28.912 17.72 32.112 15.8C35.376 13.88 38.896 12.92 42.672 12.92C47.152 12.92 51.216 14.424 54.864 17.432C55.504 17.944 55.728 18.648 55.536 19.544L52.656 34.04C52.464 35.064 51.984 35.576 51.216 35.576C50.448 35.576 50.064 35.064 50.064 34.04L49.968 30.296C49.84 24.984 49.072 21.208 47.664 18.968C46.256 16.728 44.24 15.608 41.616 15.608C39.12 15.608 36.72 16.632 34.416 18.68C32.112 20.664 29.968 23.352 27.984 26.744C26 30.072 24.24 33.784 22.704 37.88C21.232 41.912 20.08 45.976 19.248 50.072C18.416 54.168 18 57.976 18 61.496C18 67.256 18.864 71.96 20.592 75.608C22.384 79.256 25.328 81.08 29.424 81.08C31.856 81.08 34 80.216 35.856 78.488C37.776 76.696 39.728 73.656 41.712 69.368L43.824 64.856C44.144 64.088 44.624 63.704 45.264 63.704C46.288 63.704 46.64 64.312 46.32 65.528L42.48 80.504C42.224 81.464 41.712 82.04 40.944 82.232C39.856 82.616 38.288 82.968 36.24 83.288C34.192 83.672 32.304 83.864 30.576 83.864Z" fill="black"/>
<path d="M30.576 83.864C23.792 83.864 18.864 81.72 15.792 77.432C12.784 73.144 11.28 66.936 11.28 58.808C11.28 54.904 11.76 50.84 12.72 46.616C13.68 42.392 15.056 38.296 16.848 34.328C18.704 30.296 20.912 26.68 23.472 23.48C26.032 20.28 28.912 17.72 32.112 15.8C35.376 13.88 38.896 12.92 42.672 12.92C47.152 12.92 51.216 14.424 54.864 17.432C55.504 17.944 55.728 18.648 55.536 19.544L52.656 34.04C52.464 35.064 51.984 35.576 51.216 35.576C50.448 35.576 50.064 35.064 50.064 34.04L49.968 30.296C49.84 24.984 49.072 21.208 47.664 18.968C46.256 16.728 44.24 15.608 41.616 15.608C39.12 15.608 36.72 16.632 34.416 18.68C32.112 20.664 29.968 23.352 27.984 26.744C26 30.072 24.24 33.784 22.704 37.88C21.232 41.912 20.08 45.976 19.248 50.072C18.416 54.168 18 57.976 18 61.496C18 67.256 18.864 71.96 20.592 75.608C22.384 79.256 25.328 81.08 29.424 81.08C31.856 81.08 34 80.216 35.856 78.488C37.776 76.696 39.728 73.656 41.712 69.368L43.824 64.856C44.144 64.088 44.624 63.704 45.264 63.704C46.288 63.704 46.64 64.312 46.32 65.528L42.48 80.504C42.224 81.464 41.712 82.04 40.944 82.232C39.856 82.616 38.288 82.968 36.24 83.288C34.192 83.672 32.304 83.864 30.576 83.864Z" fill="black"/>
<path d="M87.5 35.5L66 35L55.5 45L58 65.5L77.5 65L90.5 58L87.5 35.5Z" fill="#EEBB2F"/>
</g>
<defs>
<clipPath id="clip0_52_1730">
<rect width="100" height="100" fill="white"/>
</clipPath>
</defs>
</svg>
